<svg xmlns="http://www.w3.org/2000/svg" viewBox="0 0 353.24 351.11"><defs><style>.cls-1{}</style></defs><g id="Layer_2" data-name="Layer 2"><g id="Layer_1-2" data-name="Layer 1"><path class="cls-1" d="M180.72,341.11c-45.22-.21-88.06-18.44-120.63-51.35S9.73,213.8,10,168.57A171.57,171.57,0,0,1,118.52,10.05l0,0c-18.52,33.2-24.6,71-17.57,109.2A159.86,159.86,0,0,0,227.47,247.09a169.22,169.22,0,0,0,32.14,3.11,161.15,161.15,0,0,0,83.59-23.3h0A171.8,171.8,0,0,1,181.51,341.11Z"/><path d="M97.92,31.38a169.36,169.36,0,0,0-7.4,28.53,175.59,175.59,0,0,0,.56,61.2,169.85,169.85,0,0,0,134.49,135.8,179.33,179.33,0,0,0,34,3.29,171.41,171.41,0,0,0,63-12,161.67,161.67,0,0,1-141.13,82.89h-.74A157.13,157.13,0,0,1,118.56,318a165.69,165.69,0,0,1-86.08-87A157,157,0,0,1,20,168.62,161.61,161.61,0,0,1,97.92,31.38M118.63,0a10.12,10.12,0,0,0-3.72.73A181.54,181.54,0,0,0,0,168.5c-.59,99.05,81.63,182.16,180.68,182.61h.83a181.58,181.58,0,0,0,171.13-120.9A10,10,0,0,0,338,218.35a150.71,150.71,0,0,1-78.4,21.85,158.44,158.44,0,0,1-30.24-2.93A149.84,149.84,0,0,1,110.75,117.49c-6.88-37.45,0-73,16.48-102.51a10.06,10.06,0,0,0-8.6-15Z"/></g></g></svg>
