<svg xmlns="http://www.w3.org/2000/svg" width="440" height="368.209" viewBox="0 0 440 368.209">
  <defs>
    <linearGradient id="linear-gradient" x1="1" y1="0.5" x2="0" y2="0.5" gradientUnits="objectBoundingBox">
      <stop offset="0" stop-color="#f45c43"/>
      <stop offset="1" stop-color="#eb3349"/>
    </linearGradient>
  </defs>
  <path id="blob1" d="M281.6-47.787C321.093-28.3,347.995,19.56,359.442,72.291c11.447,52.445,7.727,109.761-17.743,155.328-25.184,45.853-71.832,79.957-117.907,81.963-46.075,1.72-91.292-28.945-135.65-50.152S.284,226.186-32.055,195.522-85.285,115.565-68.4,82.035C-51.229,48.791,3.718,31.6,44.642,12.4,85.566-6.519,111.895-27.44,151.1-42.629,190.308-57.531,242.107-66.989,281.6-47.787Z" transform="translate(74.395 58.558)" fill="url(#linear-gradient)"/>
</svg>
